<?xml version="1.0" encoding="UTF-8"?>
<svg fill="#e8ebe6" xmlns="http://www.w3.org/2000/svg" xmlns:xlink="http://www.w3.org/1999/xlink" viewBox="0 0 30 30" width="30px" height="30px">
<g id="surface30261667">
<path style=" stroke:none;fill-rule:nonzero;fill-opacity:1;" d="M 3.300781 0.699219 C 1.863281 0.699219 0.699219 1.863281 0.699219 3.300781 L 0.699219 26.699219 C 0.699219 28.136719 1.863281 29.300781 3.300781 29.300781 L 26.699219 29.300781 C 28.136719 29.300781 29.300781 28.136719 29.300781 26.699219 L 29.300781 3.300781 C 29.300781 1.863281 28.136719 0.699219 26.699219 0.699219 Z M 9.039062 8.664062 L 11.617188 8.664062 L 16.171875 21.488281 L 13.710938 21.488281 L 12.628906 18.210938 L 7.910156 18.210938 L 6.804688 21.488281 L 4.488281 21.488281 Z M 10.203125 11.109375 L 8.441406 16.398438 L 12.09375 16.398438 L 10.351562 11.109375 Z M 21.699219 11.570312 C 24.472656 11.570312 26.136719 13.410156 26.136719 16.476562 L 26.136719 17.1875 L 19.347656 17.1875 L 19.347656 17.304688 C 19.398438 18.921875 20.332031 19.933594 21.78125 19.933594 C 22.875 19.933594 23.628906 19.535156 23.949219 18.8125 L 26.039062 18.8125 C 25.621094 20.582031 24.011719 21.683594 21.71875 21.683594 C 18.855469 21.683594 17.132812 19.789062 17.132812 16.664062 C 17.132812 13.535156 18.886719 11.570312 21.699219 11.570312 Z M 21.691406 13.320312 C 20.378906 13.320312 19.453125 14.261719 19.355469 15.683594 L 23.933594 15.683594 C 23.886719 14.242188 23.015625 13.320312 21.691406 13.320312 Z M 21.691406 13.320312 "/>
</g>
</svg>
