<?xml version="1.0" encoding="UTF-8"?>
<svg fill="#e8ebe6" xmlns="http://www.w3.org/2000/svg" xmlns:xlink="http://www.w3.org/1999/xlink" viewBox="0 0 50 50" width="50px" height="50px">
<g id="surface30257102">
<path style=" stroke:none;fill-rule:nonzero;fill-opacity:1;" d="M 25.847656 3.421875 C 25.636719 3.402344 25.421875 3.402344 25.207031 3.425781 C 24.347656 3.519531 23.574219 3.941406 23.03125 4.617188 C 21.910156 6.007812 22.132812 8.054688 23.527344 9.171875 L 27.09375 12.039062 L 8.757812 12.039062 C 6.972656 12.039062 5.519531 13.492188 5.519531 15.28125 C 5.519531 17.066406 6.972656 18.519531 8.757812 18.519531 L 16.789062 18.519531 L 1.410156 30.949219 C 0.710938 31.515625 0.273438 32.320312 0.179688 33.210938 C 0.0859375 34.105469 0.34375 34.984375 0.90625 35.683594 C 1.472656 36.378906 2.273438 36.816406 3.167969 36.910156 C 4.0625 37.003906 4.9375 36.75 5.636719 36.183594 L 13.117188 30.136719 C 13.742188 38.714844 21.722656 45.519531 31.4375 45.519531 C 41.5625 45.519531 49.796875 38.132812 49.796875 29.050781 C 49.796875 23.4375 46.65625 18.273438 41.386719 15.21875 L 27.589844 4.125 C 27.082031 3.71875 26.476562 3.476562 25.847656 3.421875 Z M 31.4375 19.601562 C 36.796875 19.601562 41.15625 23.234375 41.15625 27.699219 C 41.15625 32.167969 36.796875 35.800781 31.4375 35.800781 C 26.078125 35.800781 21.71875 32.167969 21.71875 27.699219 C 21.71875 23.234375 26.078125 19.601562 31.4375 19.601562 Z M 31.4375 21.761719 C 27.859375 21.761719 24.957031 24.175781 24.957031 27.160156 C 24.957031 30.140625 27.859375 32.558594 31.4375 32.558594 C 35.015625 32.558594 37.917969 30.140625 37.917969 27.160156 C 37.917969 24.175781 35.015625 21.761719 31.4375 21.761719 Z M 31.4375 21.761719 "/>
</g>
</svg>
