
<svg xmlns="http://www.w3.org/2000/svg" xmlns:xlink="http://www.w3.org/1999/xlink" viewBox="0 0 96 96" width="96px" height="96px">
<g id="surface20365933">
<path style=" stroke:none;fill:#fff;fill-rule:nonzero;fill-opacity:1;" d="M 70.3125 6.015625 C 69.792969 6.054688 69.269531 6.140625 68.753906 6.285156 L 11.773438 22.316406 C 9.699219 22.898438 8 24.246094 6.976562 26.097656 C 5.972656 27.910156 5.734375 29.980469 6.277344 31.847656 L 6.574219 32.972656 L 13.898438 82.558594 L 13.90625 82.59375 C 14.601562 86.867188 18.414062 90 22.710938 90 C 23.195312 90 23.65625 89.960938 24.097656 89.894531 L 24.105469 89.894531 L 82.476562 80.753906 L 82.484375 80.753906 C 84.808594 80.386719 86.941406 79.097656 88.335938 77.179688 C 89.6875 75.320312 90.25 72.953125 89.886719 70.679688 L 89.886719 70.671875 L 81.871094 20.304688 L 77.71875 20.96875 L 32.667969 28.222656 L 79.375 14.351562 L 78.566406 11.628906 C 77.523438 8.078125 73.960938 5.757812 70.3125 6.015625 Z M 74.90625 29.9375 L 81.589844 72.003906 L 81.589844 72.011719 C 81.609375 72.121094 81.609375 72.136719 81.535156 72.238281 L 81.535156 72.25 C 81.449219 72.367188 81.375 72.417969 81.171875 72.453125 L 22.847656 81.582031 C 22.785156 81.59375 22.726562 81.601562 22.710938 81.601562 C 22.332031 81.601562 22.238281 81.46875 22.199219 81.246094 L 16.917969 45.554688 L 23.40625 38.222656 L 36.195312 36.164062 L 29.648438 43.585938 L 42.453125 41.535156 L 49 34.105469 L 61.8125 32.042969 L 55.269531 39.476562 L 68.113281 37.417969 L 68.164062 37.417969 L 74.726562 29.96875 Z M 68.582031 43.710938 L 64.429688 44.382812 L 26.15625 50.542969 L 29.335938 72.066406 L 72.035156 65.382812 Z M 61.609375 53.339844 L 62.414062 58.394531 L 36.410156 62.460938 L 35.679688 57.515625 Z M 61.609375 53.339844 "/>
</g>
</svg>
