<?xml version="1.0" encoding="UTF-8"?>
<svg fill="#e8ebe6" xmlns="http://www.w3.org/2000/svg" xmlns:xlink="http://www.w3.org/1999/xlink" viewBox="0 0 24 24" width="24px" height="24px">
<g id="surface30228419">
<path style=" stroke:none;fill-rule:nonzero;fill-opacity:1;" d="M 18.320312 0.105469 C 18.175781 0.113281 18.027344 0.140625 17.878906 0.179688 L 1.734375 4.722656 C 1.148438 4.886719 0.667969 5.269531 0.375 5.792969 C 0.09375 6.308594 0.0234375 6.894531 0.179688 7.421875 L 0.261719 7.742188 L 2.339844 21.792969 L 2.339844 21.800781 C 2.539062 23.011719 3.617188 23.898438 4.835938 23.898438 C 4.972656 23.898438 5.101562 23.886719 5.226562 23.871094 L 5.230469 23.871094 L 21.769531 21.28125 C 22.429688 21.175781 23.035156 20.8125 23.429688 20.265625 C 23.8125 19.742188 23.96875 19.070312 23.867188 18.425781 L 21.597656 4.152344 L 20.421875 4.339844 L 7.65625 6.394531 L 20.890625 2.464844 L 20.660156 1.695312 C 20.367188 0.6875 19.355469 0.03125 18.320312 0.105469 Z M 19.625 6.882812 L 21.519531 18.800781 L 21.519531 18.804688 C 21.523438 18.835938 21.523438 18.839844 21.5 18.867188 L 21.5 18.871094 C 21.476562 18.902344 21.457031 18.917969 21.398438 18.929688 L 4.875 21.515625 C 4.855469 21.519531 4.839844 21.519531 4.835938 21.519531 C 4.726562 21.519531 4.699219 21.484375 4.691406 21.421875 L 3.195312 11.308594 L 5.03125 9.230469 L 8.65625 8.644531 L 6.800781 10.75 L 10.429688 10.167969 L 12.285156 8.0625 L 15.914062 7.480469 L 14.058594 9.585938 L 17.699219 9 L 17.714844 9 L 19.574219 6.890625 Z M 17.832031 10.785156 L 16.65625 10.976562 L 5.8125 12.71875 L 6.710938 18.820312 L 18.808594 16.925781 Z M 15.855469 13.511719 L 16.082031 14.945312 L 8.714844 16.097656 L 8.507812 14.695312 Z M 15.855469 13.511719 "/>
</g>
</svg>
