<?xml version="1.0" encoding="UTF-8"?>
<svg fill="#e8ebe6" xmlns="http://www.w3.org/2000/svg" xmlns:xlink="http://www.w3.org/1999/xlink" viewBox="0 0 24 24" width="24px" height="24px">
<g id="surface30198093">
<path style=" stroke:none;fill-rule:nonzero;fill-opacity:1;" d="M 2.898438 0.300781 C 1.46875 0.300781 0.300781 1.46875 0.300781 2.898438 L 0.300781 21.101562 C 0.300781 22.53125 1.46875 23.699219 2.898438 23.699219 L 21.101562 23.699219 C 22.53125 23.699219 23.699219 22.53125 23.699219 21.101562 L 23.699219 2.898438 C 23.699219 1.46875 22.53125 0.300781 21.101562 0.300781 Z M 2.898438 2.898438 L 21.101562 2.898438 L 21.101562 21.101562 L 2.898438 21.101562 Z M 5.5 6.800781 L 5.5 17.078125 L 7.675781 17.078125 L 7.675781 13.449219 L 9.125 13.449219 C 10.699219 13.449219 12.394531 12.605469 12.394531 10.183594 C 12.394531 9.582031 12.027344 6.800781 9.007812 6.800781 Z M 7.675781 8.492188 L 9.125 8.492188 C 9.972656 8.492188 10.335938 9.339844 10.335938 10.183594 C 10.335938 11.03125 10.09375 11.757812 9.125 11.757812 L 7.675781 11.757812 Z M 16.121094 9.339844 C 15.152344 9.339844 13.460938 9.824219 13.460938 11.636719 C 13.460938 14.054688 16.964844 13.933594 16.964844 15.023438 C 16.964844 15.507812 16.605469 15.75 16.121094 15.75 C 15.878906 15.75 15.152344 15.628906 15.152344 14.660156 L 13.21875 14.660156 C 13.21875 15.871094 14.1875 17.199219 16.125 17.199219 C 17.089844 17.199219 18.902344 16.835938 18.902344 15.023438 C 18.902344 12.363281 15.398438 12.726562 15.398438 11.515625 C 15.398438 11.035156 15.761719 10.792969 16.125 10.792969 C 16.605469 10.792969 16.847656 11.152344 16.847656 11.757812 L 18.902344 11.757812 C 18.902344 10.429688 17.9375 9.339844 16.121094 9.339844 Z M 16.121094 9.339844 "/>
</g>
</svg>
